<svg xmlns="http://www.w3.org/2000/svg" width="48.993" height="37.033" viewBox="0 0 48.993 37.033">
  <path d="M0,10.566a57.673,57.673,0,0,0,6.145.8A22.552,22.552,0,0,0,22.519,5.053,20.5,20.5,0,0,1,32.715.337,23.934,23.934,0,0,1,43.344,1,22.3,22.3,0,0,1,25.276,26.343,22.176,22.176,0,0,1,0,10.566Zm4.052,2.69c.3,3.886,5.779,8.569,11.558,10.031,5.414,1.395,12.389-.3,14.149-2.491A20.55,20.55,0,0,1,18.6,21a20.833,20.833,0,0,0,10.562-9.067c-1.395.5-2.69,1.2-4.019,1.727a32.091,32.091,0,0,1-4.152,1.395c-1.362.365-2.757.565-4.152.864,1.893-1.627,3.355-3.321,3.82-5.846A22.049,22.049,0,0,1,4.052,13.257Z" transform="matrix(0.966, 0.259, -0.259, 0.966, 6.903, -0.007)" fill="#fff"/>
</svg>
