<svg xmlns="http://www.w3.org/2000/svg" width="212.914" height="137.25" viewBox="0 0 212.914 137.25">
  <path id="Path_13" data-name="Path 13" d="M212.88,35.527s0-10.1-10.1-10.1H0V68.715H168.99V162.68h43.924l-.034-93.966Z" transform="translate(0 -25.43)" fill="#00b8ad"/>
  <path id="Path_16" data-name="Path 16" d="M160.76,99.831h.892V94.942a2.9,2.9,0,0,0-2.911-3.088c-1.422,0-2.7.833-3.526,2.743V92.073h-.9v7.758h.9v-1.2c0-4.418,2.028-5.873,3.408-5.873a2.063,2.063,0,0,1,2.129,2.188v4.889ZM146.144,92.7a2.8,2.8,0,0,1,2.743,2.819h-5.713a2.776,2.776,0,0,1,2.97-2.819m.059,7.3a4.189,4.189,0,0,0,3.366-1.515l-.69-.555a3.365,3.365,0,0,1-2.676,1.161,2.837,2.837,0,0,1-3.012-2.718l6.6-.017v-.513a3.769,3.769,0,0,0-3.66-4.039,3.721,3.721,0,0,0-3.862,4.039A3.832,3.832,0,0,0,146.2,100m-8.33-11.511h-.9V99.831h.9ZM128.835,92.7a2.8,2.8,0,0,1,2.743,2.819h-5.713a2.776,2.776,0,0,1,2.97-2.819m.059,7.3a4.189,4.189,0,0,0,3.366-1.515l-.69-.555a3.365,3.365,0,0,1-2.676,1.161,2.837,2.837,0,0,1-3.012-2.718l6.6-.017v-.513a3.769,3.769,0,0,0-3.66-4.039,3.721,3.721,0,0,0-3.862,4.039,3.832,3.832,0,0,0,3.938,4.157m-11.351-1c-1.481,0-2.558-1.144-3.155-3.13.648-2.146,1.834-3.113,3.189-3.113,1.54,0,2.642,1.3,2.642,3.088s-1.043,3.155-2.676,3.155m-3.492-4.7a15.265,15.265,0,0,1-.16-2.23h-.909a15.379,15.379,0,0,0,.5,3.8,15.507,15.507,0,0,0-.488,4.039v3.29h.909V99.873a18.774,18.774,0,0,1,.151-2.423,3.775,3.775,0,0,0,3.484,2.465c2.364,0,3.6-2.053,3.6-4.081a3.722,3.722,0,0,0-3.551-3.98,3.865,3.865,0,0,0-3.526,2.449m-8.473,4.965a4.088,4.088,0,0,1-3.13-1.043l-.606.673a5.041,5.041,0,0,0,3.778,1.22c1.818-.1,2.836-1.119,2.836-2.171,0-1.775-1.75-2.221-3.155-2.5-1.809-.353-2.247-.85-2.23-1.5.025-.589.513-1.262,1.868-1.338a3.591,3.591,0,0,1,2.625.867l.614-.648a4.529,4.529,0,0,0-3.307-1.085c-1.632.084-2.7.968-2.7,2.188,0,1.38,1.119,2.028,2.954,2.381,2.188.438,2.4.951,2.44,1.59.017.438-.438,1.279-1.986,1.363M87.167,96.2A3.709,3.709,0,0,1,91.13,99.84h.909a4.3,4.3,0,0,0-3.054-4.182c1.4-.724,2.7-2.087,2.7-3.6h-.892c0,1.59-2.247,3.248-3.8,3.248H85.946V89.675h-.892V99.84h.892V96.2h1.22Zm-7.009-4.157h-.85v8.372c0,.732-.337,1.128-1.06,1.128a2.423,2.423,0,0,1-.774-.143l-.261.808a3.62,3.62,0,0,0,1.027.177,1.77,1.77,0,0,0,1.91-1.969l.017-8.372Zm.236-1.75a.69.69,0,1,0-.69.69.693.693,0,0,0,.69-.69m-6.976,1.75h-.892v7.783h.892Zm.252-1.75a.69.69,0,1,0-.69.69.693.693,0,0,0,.69-.69M67.291,88.48H66.4V99.823h.892Zm-4.847,3.374a4.215,4.215,0,0,0-3.744,2.76V92.073h-.892v7.741H58.7v-1.3c0-4.527,2.322-5.7,3.744-5.7Zm-15.962.2H45.59v4.906a2.851,2.851,0,0,0,2.853,3.071c1.439,0,2.617-.841,3.433-2.743v2.524h.892V92.056h-.892v1.2c0,4.2-1.927,5.857-3.315,5.857a2,2,0,0,1-2.07-2.171V92.056Zm-12.092,0h-.9v4.906a2.851,2.851,0,0,0,2.853,3.071c1.439,0,2.617-.841,3.433-2.743v2.524h.9V92.056h-.9v1.2c0,4.2-1.927,5.857-3.315,5.857a2,2,0,0,1-2.07-2.171Zm-7.683-2.423h-.892v2.4H24.36v.833h1.456v4.981a1.97,1.97,0,0,0,2.053,2.087,5.135,5.135,0,0,0,1.691-.353l-.32-.833a3.989,3.989,0,0,1-1.38.294,1.073,1.073,0,0,1-1.144-1.186V92.872h2.6v-.833h-2.6v-2.4ZM15.718,92.721c1.439,0,2.44,1.22,3.029,3.248-.5,1.658-1.4,3.155-3.189,3.155a2.826,2.826,0,0,1-2.7-3.054,3.086,3.086,0,0,1,2.861-3.349m3.307,4.847a16.043,16.043,0,0,1,.16,2.247h.892a14.665,14.665,0,0,0-.488-3.837,14.775,14.775,0,0,0,.488-3.921h-.892a16.212,16.212,0,0,1-.143,2.306,3.653,3.653,0,0,0-3.332-2.524c-2.407,0-3.761,2.1-3.761,4.233a3.652,3.652,0,0,0,7.085,1.5M6.446,99.831h.892V94.942a2.9,2.9,0,0,0-2.911-3.088C3,91.854,1.725,92.687.9,94.6V92.073H0v7.758H.892v-1.2c0-4.418,2.028-5.873,3.408-5.873a2.063,2.063,0,0,1,2.129,2.188v4.889Z" transform="translate(0 -35.426)" fill="#f597a8"/>
</svg>
